<?xml version="1.0" encoding="UTF-8"?>
<svg width="16px" height="16px" viewBox="0 0 16 16" version="1.1" xmlns="http://www.w3.org/2000/svg" xmlns:xlink="http://www.w3.org/1999/xlink">
    <title>icon_add</title>
    <g id="页面-1" stroke="none" stroke-width="1" fill="none" fill-rule="evenodd">
        <g id="新增采集点" transform="translate(-1113.000000, -534.000000)">
            <g id="编组-18" transform="translate(731.000000, 337.000000)">
                <g id="编组-10" transform="translate(32.000000, 188.000000)">
                    <g id="icon_add" transform="translate(350.000000, 9.000000)">
                        <circle id="椭圆形" stroke="#3788F5" cx="8" cy="8" r="7.5"></circle>
                        <path d="M8,4.5 C8.27614237,4.5 8.5,4.72385763 8.5,5 L8.5,7.499 L11,7.5 C11.2761424,7.5 11.5,7.72385763 11.5,8 C11.5,8.27614237 11.2761424,8.5 11,8.5 L8.5,8.499 L8.5,11 C8.5,11.2761424 8.27614237,11.5 8,11.5 C7.72385763,11.5 7.5,11.2761424 7.5,11 L7.5,8.499 L5,8.5 C4.72385763,8.5 4.5,8.27614237 4.5,8 C4.5,7.72385763 4.72385763,7.5 5,7.5 L7.5,7.499 L7.5,5 C7.5,4.72385763 7.72385763,4.5 8,4.5 Z" id="形状结合" fill="#3788F5"></path>
                    </g>
                </g>
            </g>
        </g>
    </g>
</svg>